<svg role="img" viewBox="0 0 98 98" xmlns="http://www.w3.org/2000/svg" id="Metasploit--Streamline-Simple-Icons" height="98" width="98">
  <desc>
    Metasploit Streamline Icon: https://streamlinehq.com
  </desc>
  <title>Metasploit</title>
  <path d="M46.358083333333326 0h5.586q17.109166666666667 0.8901666666666666 33.254666666666665 6.5986666666666665 0.8860833333333332 0.3144166666666666 0.8819999999999999 1.26175 -0.06124999999999999 16.468083333333333 -0.008166666666666666 49.4165 0 3.3075 -0.37975 4.78975c-0.8860833333333332 3.4504166666666665 -3.103333333333333 6.67625 -5.4145 9.49375q-1.2985 1.5843333333333334 -4.181333333333333 4.271166666666667 -12.06625 11.229166666666666 -24.54083333333333 20.8005 -0.74725 0.5716666666666667 -2.1069999999999998 1.3679166666666667h-0.6941666666666667q-2.56025 -1.7149999999999999 -3.8587499999999997 -2.748083333333333 -16.300666666666665 -13.001333333333333 -22.2215 -18.207583333333332 -5.504333333333333 -4.83875 -8.85675 -10.661583333333333c-1.5067499999999998 -2.6133333333333333 -1.9028333333333334 -5.255249999999999 -1.89875 -8.570916666666667q0.04083333333333333 -24.695999999999998 0.008166666666666666 -49.890166666666666c0 -0.74725 0.36749999999999994 -1.078 1.06575 -1.3270833333333334Q29.175416666666663 0.9269166666666666 46.354 0ZM30.518833333333333 32.11133333333333q0 -0.3838333333333333 0.28175 -0.12658333333333333l11.421083333333334 10.273666666666665a1.5271666666666666 1.519 21.2 0 1 0.49816666666666665 1.127l-0.024499999999999997 17.693083333333334a0.7431666666666666 0.7431666666666666 0 0 0 0.74725 0.7513333333333333l10.306333333333333 -0.0735a0.44916666666666666 0.44916666666666666 89.8 0 0 0.44099999999999995 -0.44916666666666666q-0.028583333333333332 -8.987416666666666 0.04083333333333333 -18.21575 0.008166666666666666 -0.7064166666666666 0.5961666666666666 -1.1841666666666666 5.704416666666666 -4.675416666666666 12.0295 -9.771416666666665 0.2776666666666667 -0.22458333333333333 0.2776666666666667 0.13066666666666665v44.430749999999996q0 0.37566666666666665 0.25725 0.09799999999999999 3.2421666666666664 -3.532083333333333 6.647666666666666 -7.505166666666667 2.8991666666666664 -3.389166666666666 4.018 -7.635833333333333 1.0616666666666665 -4.0384166666666665 1.0698333333333332 -8.154416666666666 0.028583333333333332 -19.412166666666664 0.03675 -39.886a0.5553333333333333 0.5553333333333333 0 0 0 -0.5594166666666667 -0.5553333333333333q-4.695833333333333 0.01633333333333333 -9.898 0c-1.1719166666666665 -0.008166666666666666 -1.8007499999999999 -0.08983333333333332 -2.5275833333333333 0.6084166666666666Q57.81999999999999 21.71108333333333 48.9265 30.216666666666665a0.18783333333333332 0.18783333333333332 0 0 1 -0.25316666666666665 0Q39.94316666666666 22.201083333333333 31.723416666666665 14.393749999999999c-0.9555 -0.9065 -2.1029166666666668 -1.55575 -3.4422499999999996 -1.5230833333333331q-4.450833333333334 0.10616666666666666 -9.514166666666666 0.020416666666666666 -0.7513333333333333 -0.01633333333333333 -0.7513333333333333 0.7349999999999999 -0.012249999999999999 18.53833333333333 0.020416666666666666 36.88066666666666 0.008166666666666666 2.1886666666666668 0.147 4.193583333333333c0.3103333333333333 4.463083333333333 0.8166666666666667 8.681166666666666 3.2789166666666665 12.335749999999999 2.343833333333333 3.4789999999999996 5.426749999999999 6.762 8.681166666666666 9.820416666666665q0.09391666666666666 0.08983333333333332 0.22049999999999997 0.10616666666666666 0.16333333333333333 0.024499999999999997 0.16333333333333333 -0.13883333333333334z" fill="#000000" stroke-width="4.0833"></path>
</svg>