<svg role="img" viewBox="0 0 98 98" xmlns="http://www.w3.org/2000/svg" id="Owasp--Streamline-Simple-Icons" height="98" width="98">
  <desc>
    Owasp Streamline Icon: https://streamlinehq.com
  </desc>
  <title>OWASP</title>
  <path d="M64.91275 83.72058333333332c-1.5679999999999998 0 -7.2764999999999995 -10.163416666666665 -8.044166666666666 -13.058499999999999 -1.60475 -6.067833333333333 -1.2576666666666665 -8.632166666666665 -1.1637499999999998 -9.448833333333333 0.294 -2.503083333333333 2.7235833333333335 -3.7566666666666664 2.870583333333333 -7.137666666666666 0.04083333333333333 -1.0453333333333332 0.5716666666666667 -6.2679166666666655 0.9922499999999999 -10.347166666666665a7.035583333333333 7.035583333333333 0 0 1 -2.993083333333333 -1.4005833333333333c2.7603333333333335 3.7076666666666664 -1.3066666666666666 8.14625 -7.215249999999999 14.058916666666667 -6.271999999999999 6.271999999999999 -20.192083333333333 12.090749999999998 -20.192083333333333 12.090749999999998s5.81875 -13.924166666666666 12.090749999999998 -20.192083333333333c4.614166666666666 -4.610083333333333 8.33 -8.097249999999999 11.498666666666665 -8.097249999999999 0.8983333333333333 0 1.7435833333333333 0.27358333333333335 2.56025 0.8819999999999999a7.031499999999999 7.031499999999999 0 0 1 -1.4005833333333333 -2.993083333333333c-4.07925 0.42058333333333325 -9.301833333333333 0.9473333333333334 -10.347166666666665 0.9963333333333333 -3.3850833333333328 0.147 -4.634583333333333 2.5725 -7.133583333333333 2.8665 -0.28583333333333333 0.03266666666666666 -0.7921666666666667 0.09799999999999999 -1.5843333333333334 0.09799999999999999 -1.4699999999999998 0 -3.93225 -0.22049999999999997 -7.8645 -1.2658333333333331 -3.152333333333333 -0.8289166666666666 -14.895999999999999 -7.513333333333333 -12.821666666666665 -8.350416666666666 1.0616666666666665 -0.42874999999999996 4.438583333333333 -0.7186666666666666 8.881249999999998 -0.7186666666666666 4.27525 0 9.54275 0.2695 14.683666666666666 0.9391666666666666 6.410833333333333 0.8370833333333332 12.290833333333332 1.8905833333333333 16.300666666666665 2.6786666666666665 0.06533333333333333 -0.21641666666666665 0.14291666666666666 -0.42466666666666664 0.23683333333333334 -0.6288333333333332l-4.099666666666667 -1.9599999999999997s-3.2666666666666666 -3.7566666666666664 -2.919583333333333 -4.018a0.08166666666666667 0.08166666666666667 0 0 1 0.048999999999999995 -0.012249999999999999c0.5145 0 3.1319166666666667 2.993083333333333 3.3850833333333328 3.3319999999999994l2.4704166666666665 0.8248333333333333 -1.1596666666666664 -1.0167499999999998s-1.5843333333333334 -5.871833333333333 -1.1719166666666665 -6.010666666666666h0.01633333333333333c0.4328333333333333 0 1.87425 5.104166666666666 1.9967499999999998 5.471666666666667 0.28583333333333333 0.24499999999999997 1.23725 0.6206666666666666 2.4336666666666664 1.3066666666666666l-1.2576666666666665 -3.225833333333333s0.5716666666666667 -5.328749999999999 0.9922499999999999 -5.328749999999999h0.012249999999999999c0.42874999999999996 0.08574999999999999 -0.08166666666666667 4.44675 -0.19191666666666665 4.98575l2.0825 3.19725a5.349166666666666 5.349166666666666 0 0 1 1.8905833333333333 -0.3348333333333333c0.7513333333333333 0 1.5271666666666666 0.147 2.2785 0.4369166666666666 -0.9636666666666666 -2.0498333333333334 -0.8901666666666666 -4.185416666666666 0.38791666666666663 -5.4635a3.4299999999999997 3.4299999999999997 0 0 1 1.4414166666666666 -0.8534166666666666 1.8864999999999998 1.8864999999999998 0 0 1 1.8660833333333333 -1.5639166666666666c0.5185833333333333 0 1.0371666666666666 0.20416666666666666 1.4373333333333331 0.6043333333333333a2.0294166666666666 2.0294166666666666 0 0 1 0.60025 1.3679166666666667c0.6165833333333333 -1.2699166666666666 1.3434166666666667 -2.980833333333333 1.2944166666666665 -3.54025 -0.12249999999999998 -1.2535833333333333 -1.5761666666666665 -3.4789999999999996 -1.5925 -3.4994166666666664a0.3103333333333333 0.3103333333333333 0 0 1 0.2613333333333333 -0.4859166666666666c0.10208333333333333 0 0.20416666666666666 0.048999999999999995 0.2613333333333333 0.14291666666666666 0.06533333333333333 0.09391666666666666 1.55575 2.3764999999999996 1.6905 3.78525 0.0735 0.8085 -0.8574999999999999 2.8419999999999996 -1.35975 3.879166666666666a9.093583333333331 9.093583333333331 0 0 1 3.5647499999999996 3.568833333333333c1.0004166666666665 -0.48999999999999994 2.919583333333333 -1.3638333333333332 3.78525 -1.3638333333333332l0.09799999999999999 0.004083333333333333c1.4087499999999997 0.13475 3.691333333333333 1.6292499999999999 3.78525 1.6905a0.3103333333333333 0.3103333333333333 0 0 1 -0.34299999999999997 0.5226666666666666c-0.020416666666666666 -0.01633333333333333 -2.2458333333333336 -1.4699999999999998 -3.4994166666666664 -1.5925h-0.06124999999999999c-0.6124999999999999 0 -2.254 0.69825 -3.4789999999999996 1.2944166666666665 0.48999999999999994 0.01633333333333333 0.9881666666666665 0.21641666666666665 1.3679166666666667 0.60025a1.9681666666666664 1.9681666666666664 0 0 1 0.048999999999999995 2.78075 1.87425 1.87425 0 0 1 -1.0085833333333332 0.5226666666666666 3.4504166666666665 3.4504166666666665 0 0 1 -0.8574999999999999 1.4454999999999998 3.7729999999999997 3.7729999999999997 0 0 1 -2.7358333333333333 1.04125c-0.8656666666666666 0 -1.8007499999999999 -0.22458333333333333 -2.7235833333333335 -0.6533333333333333 0.539 1.4005833333333333 0.5798333333333332 2.8909999999999996 0.10208333333333333 4.165l3.19725 2.0825c0.38791666666666663 -0.07758333333333332 2.7195 -0.3593333333333333 4.054749999999999 -0.3593333333333333 0.5308333333333333 0 0.9065 0.04491666666666666 0.9309999999999999 0.16333333333333333 0.08166666666666667 0.4328333333333333 -5.328749999999999 1.0085833333333332 -5.328749999999999 1.0085833333333332l-3.225833333333333 -1.2576666666666665c0.6859999999999999 1.1964166666666665 1.0616666666666665 2.1519166666666667 1.3066666666666666 2.4336666666666664 0.3715833333333333 0.12249999999999998 5.6105 1.6006666666666667 5.471666666666667 2.0130833333333333 -0.01633333333333333 0.048999999999999995 -0.10616666666666666 0.06941666666666667 -0.25725 0.06941666666666667 -1.1555833333333332 0 -5.757499999999999 -1.2413333333333332 -5.757499999999999 -1.2413333333333332l-1.0126666666666666 -1.1596666666666664 0.8248333333333333 2.4704166666666665c0.35524999999999995 0.26541666666666663 3.577 3.0829166666666663 3.3197499999999995 3.434083333333333 -0.01633333333333333 0.020416666666666666 -0.03675 0.028583333333333332 -0.06533333333333333 0.028583333333333332 -0.5675833333333333 0 -3.948583333333333 -2.9481666666666664 -3.948583333333333 -2.9481666666666664l-1.9640833333333332 -4.099666666666667a4.8183333333333325 4.8183333333333325 0 0 1 -0.6288333333333332 0.23683333333333334c0.7880833333333332 4.009833333333333 1.8415833333333333 9.889833333333334 2.6786666666666665 16.300666666666665 1.3679166666666667 10.490083333333333 1.0616666666666665 21.482416666666666 0.22049999999999997 23.56083333333333 -0.06533333333333333 0.16741666666666666 -0.17149999999999999 0.24499999999999997 -0.3103333333333333 0.24499999999999997M49 98C21.93975 98 0 76.06025 0 49S21.93975 0 49 0s49 21.93975 49 49 -21.93975 49 -49 49m0 -90.45808333333332C26.104749999999996 7.541916666666666 7.541916666666666 26.104749999999996 7.541916666666666 49S26.104749999999996 90.45808333333332 49 90.45808333333332 90.45808333333332 71.89524999999999 90.45808333333332 49 71.89524999999999 7.541916666666666 49 7.541916666666666Z" fill="#000000" stroke-width="4.0833"></path>
</svg>