<svg role="img" viewBox="0 0 98 98" xmlns="http://www.w3.org/2000/svg" id="Wireshark--Streamline-Simple-Icons" height="98" width="98">
  <desc>
    Wireshark Streamline Icon: https://streamlinehq.com
  </desc>
  <title>Wireshark</title>
  <path d="M12.045833333333333 0C5.430833333333333 0 0 5.39 0 12.045833333333333v73.90833333333333C0 92.60999999999999 5.39 98 12.045833333333333 98h73.90833333333333c6.615 0 12.045833333333333 -5.39 12.045833333333333 -12.045833333333333V12.045833333333333C97.99901999999999 5.39 92.60999999999999 0 85.95416666666667 0zm0 4.450833333333334h73.90833333333333c4.246666666666666 0 7.554166666666666 3.3401666666666663 7.554166666666666 7.595v57.166666666666664h-21.519166666666663c-1.3679166666666667 -3.2503333333333333 -10.494166666666665 -26.419166666666662 1.1555833333333332 -44.50833333333333a2.1069999999999998 2.111083333333333 0 0 0 -1.8089166666666665 -3.2421666666666664c-21.396666666666665 0.3376916666666666 -33.48333333333333 13.025833333333333 -39.77166666666666 25.357499999999998 -5.5125 10.78 -6.655833333333333 20.049166666666665 -6.900833333333333 22.580833333333334H4.450833333333334v-57.166666666666664c0 -4.246666666666666 3.336083333333333 -7.595 7.554166666666666 -7.595zm55.533333333333324 21.396666666666665c-10.698333333333332 21.396666666666665 1.0126666666666666 46.55 1.0126666666666666 46.55a2.1069999999999998 2.111083333333333 0 0 0 1.915083333333333 1.2290833333333333h22.94833333333333v12.454166666666666c0 4.246666666666666 -3.336083333333333 7.595 -7.554166666666666 7.595h-73.90833333333333c-4.246666666666666 0 -7.554166666666666 -3.3401666666666663 -7.554166666666666 -7.595v-12.454166666666666h22.009166666666665a2.1069999999999998 2.111083333333333 0 0 0 2.0988333333333333 -1.9477499999999999s0.9228333333333333 -11.433333333333332 6.778333333333332 -22.94833333333333c5.471666666666667 -10.698333333333332 14.985833333333332 -21.110833333333332 32.299166666666665 -22.744166666666665z" fill="#000000" stroke-width="4.0833"></path>
</svg>